<svg aria-hidden="true" style="position:absolute;width:0;height:0" xmlns="http://www.w3.org/2000/svg" overflow="hidden"><defs><symbol id="-iconcar" viewBox="0 0 60 32"><path fill="var(--color1, #fff)" opacity=".4" d="M12.752 23.675c-2.342 0-4.164 1.821-4.164 4.163s1.822 4.163 4.164 4.163 4.164-1.821 4.164-4.163c0-2.341-1.822-4.163-4.164-4.163zM37.474 0h-2.082v5.073h7.807L37.474 0zM.26 28.618h5.205s.26-7.805 7.807-7.805c5.595 0 6.506 7.805 6.506 7.805H32.79V0H0l.26 28.618zm49.185-4.943c-2.342 0-4.164 1.821-4.164 4.163s1.822 4.163 4.164 4.163c2.342 0 4.164-1.821 4.164-4.163s-1.952-4.163-4.164-4.163zM44.501 6.504h-9.108v22.114H43.2s-1.041-6.504 6.506-6.504c5.725 0 5.595 6.504 5.595 6.504h4.814l.26-9.756L44.5 6.504zM43.2 23.415h-5.205v-2.602H43.2v2.602zm-.521-4.683l-5.205-3.122V8.325h5.205l13.532 10.406H42.679z"/></symbol><symbol id="-iconenvelope" viewBox="0 0 32 32"><path fill="var(--color1, #fff)" opacity=".4" d="M28.093 3.824H3.913A3.916 3.916 0 000 7.737v16.526a3.916 3.916 0 003.913 3.913h24.174A3.916 3.916 0 0032 24.263V7.743a3.912 3.912 0 00-3.907-3.92zm2.126 20.439a2.128 2.128 0 01-2.125 2.125H3.914a2.127 2.127 0 01-2.125-2.125V7.743c0-1.172.953-2.125 2.125-2.125h24.174c1.172 0 2.125.953 2.125 2.125v16.52h.007z"/><path fill="var(--color1, #fff)" opacity=".4" d="M20.181 15.795l7.826-7.018a.899.899 0 00.066-1.265.899.899 0 00-1.265-.066l-10.792 9.687-2.105-1.88c-.007-.007-.013-.013-.013-.02a1.362 1.362 0 00-.146-.126L5.184 7.44c-.371-.331-.934-.298-1.265.073s-.298.934.073 1.265l7.919 7.078-7.886 7.383a.897.897 0 001.224 1.311l8.005-7.489 2.172 1.94a.894.894 0 001.192-.007l2.231-2 7.959 7.561a.896.896 0 001.232-1.298l-7.859-7.462z"/></symbol><symbol id="-iconfb" viewBox="0 0 19 32"><path fill="var(--color2, #f13c6e)" d="M17.599.007L13.449 0C8.787 0 5.774 3.091 5.774 7.875v3.631H1.602a.652.652 0 00-.652.653v5.261c0 .36.292.652.652.652h4.172v13.275c0 .36.292.652.652.652h5.444a.651.651 0 00.652-.652V18.072H17.4a.651.651 0 00.652-.652l.002-5.261a.652.652 0 00-.653-.652h-4.88V8.429c0-1.479.353-2.23 2.28-2.23l2.795-.001c.36 0 .652-.292.652-.652V.661a.652.652 0 00-.652-.652z"/></symbol><symbol id="-iconinsta" viewBox="0 0 32 32"><path fill="var(--color2, #f13c6e)" d="M22 0H10C4.478 0 0 4.478 0 10v12c0 5.522 4.478 10 10 10h12c5.522 0 10-4.478 10-10V10c0-5.522-4.478-10-10-10zm7 22c0 3.86-3.14 7-7 7H10c-3.86 0-7-3.14-7-7V10c0-3.86 3.14-7 7-7h12c3.86 0 7 3.14 7 7v12z"/><path fill="var(--color2, #f13c6e)" d="M16 8a8 8 0 100 16 8 8 0 000-16zm0 13c-2.756 0-5-2.244-5-5 0-2.758 2.244-5 5-5s5 2.242 5 5c0 2.756-2.244 5-5 5zM24.6 8.466a1.066 1.066 0 100-2.131 1.066 1.066 0 000 2.131z"/></symbol><symbol id="-iconlogo" viewBox="0 0 32 32"><path fill="var(--color2, #f13c6e)" d="M22.888 10.149l-4.213 4.213 1.631 1.631 4.213-4.213-1.631-1.631zM14.364 18.683l-4.213 4.213 1.631 1.631 4.213-4.213-1.631-1.631zM20.207 7.482l-4.213 4.213 1.631 1.631 4.213-4.213-1.631-1.631zM11.694 16.004l-4.213 4.213 1.631 1.631 4.213-4.213-1.631-1.631zM9.103 10.149L7.472 11.78l4.213 4.213 1.631-1.631-4.213-4.213zM11.782 7.48l-1.631 1.631 4.213 4.213 1.631-1.631-4.213-4.213zM20.304 15.992l-1.631 1.631 4.213 4.213 1.631-1.631-4.213-4.213zM17.637 18.674l-1.631 1.631 4.213 4.213 1.631-1.631-4.213-4.213z"/><path fill="var(--color3, #efefef)" d="M21.842 26.158l-1.627-1.627-4.216 4.216-4.216-4.216-1.627 1.627L15.998 32l5.842-5.842zM7.469 11.784l-1.627-1.627L0 15.999l5.842 5.842 1.627-1.627-4.216-4.216 4.216-4.216zM26.158 10.158l-1.627 1.627 4.216 4.216-4.216 4.216 1.627 1.627L32 16.002l-5.842-5.842zM20.216 7.469l1.627-1.627L16.001 0l-5.842 5.842 1.627 1.627 4.216-4.216 4.216 4.216z"/></symbol><symbol id="-iconsearch" viewBox="0 0 32 32"><path fill="var(--color4, #bdbdbd)" d="M31.54 28.695l-7.247-6.961c1.781-2.206 2.845-4.971 2.845-7.972 0-7.187-6.087-13.034-13.569-13.034C6.088.728.002 6.574.002 13.762S6.089 26.797 13.57 26.797c3.227 0 6.193-1.089 8.525-2.903l7.223 6.937c.306.295.709.443 1.111.443.404 0 .806-.148 1.113-.443a1.468 1.468 0 000-2.135zM3.146 13.761c0-5.52 4.676-10.011 10.422-10.011 5.748 0 10.423 4.49 10.423 10.011s-4.676 10.013-10.423 10.013c-5.746 0-10.422-4.494-10.422-10.013z"/></symbol><symbol id="-iconvk" viewBox="0 0 58 32"><path fill="var(--color2, #f13c6e)" d="M55.789 28.9a3.829 3.829 0 00-.19-.365c-.973-1.753-2.833-3.904-5.578-6.454l-.058-.058-.058-.058h-.03c-1.246-1.188-2.035-1.986-2.365-2.395-.604-.779-.74-1.567-.409-2.366.233-.603 1.11-1.878 2.628-3.825a221.08 221.08 0 001.898-2.482c3.368-4.478 4.829-7.339 4.381-8.585l-.174-.291c-.117-.175-.419-.336-.905-.482s-1.11-.17-1.869-.073l-8.41.058c-.136-.048-.331-.044-.584.015l-.38.088-.146.073-.116.088c-.097.058-.204.16-.321.306s-.214.316-.291.511a47.714 47.714 0 01-3.125 6.57c-.72 1.207-1.382 2.253-1.986 3.139s-1.11 1.538-1.518 1.956c-.409.419-.778.754-1.11 1.007s-.584.361-.759.321a19.945 19.945 0 01-.497-.117c-.272-.175-.491-.414-.657-.715s-.278-.681-.336-1.139c-.058-.458-.093-.852-.102-1.183s-.005-.798.015-1.402c.02-.604.029-1.012.029-1.226 0-.74.014-1.543.043-2.409s.053-1.553.073-2.058c.02-.506.029-1.042.029-1.606s-.034-1.007-.102-1.329c-.067-.321-.17-.632-.306-.935s-.336-.535-.599-.701a3.37 3.37 0 00-.978-.394C29.894.15 28.58.024 26.983.005c-3.621-.039-5.948.195-6.979.701a3.933 3.933 0 00-1.11.876c-.351.428-.399.662-.146.701 1.168.175 1.995.594 2.482 1.256l.175.351c.136.253.273.701.409 1.343s.224 1.353.263 2.131c.097 1.421.097 2.638 0 3.65s-.189 1.801-.277 2.365c-.088.565-.219 1.022-.394 1.372s-.292.565-.351.642-.107.127-.146.146c-.253.097-.516.146-.789.146s-.604-.136-.993-.409c-.389-.273-.793-.647-1.212-1.124s-.891-1.144-1.417-2a34.947 34.947 0 01-1.635-3.037l-.467-.847c-.292-.545-.691-1.338-1.197-2.38s-.954-2.049-1.343-3.023c-.156-.409-.389-.72-.701-.934l-.146-.088c-.097-.078-.253-.16-.467-.248s-.438-.151-.672-.19l-8.001.058c-.818 0-1.372.185-1.665.555l-.117.175c-.058.097-.088.253-.088.467s.058.477.175.788c1.168 2.745 2.438 5.393 3.811 7.943s2.565 4.605 3.577 6.161c1.012 1.558 2.044 3.028 3.095 4.41s1.747 2.268 2.088 2.657c.341.39.609.681.803.876l.73.701c.467.467 1.153 1.027 2.059 1.679s1.908 1.295 3.008 1.928c1.1.632 2.38 1.148 3.84 1.547s2.881.56 4.263.482h3.358c.681-.059 1.197-.273 1.548-.643l.116-.146c.078-.116.151-.297.219-.54s.102-.511.102-.803c-.02-.837.044-1.591.189-2.263s.311-1.178.497-1.519c.185-.341.395-.628.628-.861s.4-.375.497-.424a1.87 1.87 0 01.233-.102c.467-.156 1.017-.005 1.65.453s1.226 1.022 1.782 1.694c.555.672 1.222 1.426 2 2.263s1.46 1.46 2.044 1.869l.584.35c.39.234.896.448 1.519.643s1.167.243 1.635.146l7.476-.117c.739 0 1.315-.122 1.723-.365s.652-.511.73-.803c.078-.292.082-.623.015-.993-.069-.369-.138-.628-.205-.773z"/></symbol><symbol id="-iconyoutube" viewBox="0 0 46 32"><path fill="var(--color2, #f13c6e)" d="M35.15 0H9.214C4.125 0 0 4.205 0 9.392v13.216C0 27.795 4.125 32 9.214 32H35.15c5.089 0 9.214-4.205 9.214-9.392V9.392C44.364 4.205 40.239 0 35.15 0zm-6.231 16.643l-12.131 5.898a.488.488 0 01-.697-.448V9.929c0-.37.383-.61.707-.443l12.131 6.266a.5.5 0 01-.011.891z"/></symbol></defs></svg>